<svg id="Layer_3" enable-background="new 0 0 64 64" height="512" viewBox="0 0 64 64" width="512" xmlns="http://www.w3.org/2000/svg"><path d="m54 53h8v-13l-4.54-12.107c-.878-2.342-3.117-3.893-5.618-3.893h-43.842c-3.314 0-6 2.686-6 6v23h8" fill="#ca6b4a"/><path d="m21 47v-19h18v21h-16" fill="#db8c74"/><circle cx="47" cy="53" fill="#928fa1" r="7"/><circle cx="17" cy="53" fill="#928fa1" r="7"/><circle cx="47" cy="53" fill="#e8e8e8" r="3"/><circle cx="17" cy="53" fill="#e8e8e8" r="3"/><path d="m2 42h4v11h-4z" fill="#bf5763"/><path d="m58 43h4v10h-4z" fill="#f1b869"/><path d="m21 28h18v10h-18z" fill="#74a2d9"/><path d="m43 38h13l-2.572-8.575c-.254-.846-1.033-1.425-1.916-1.425h-8.512z" fill="#74a2d9"/><path d="m8 28h9v10h-9z" fill="#74a2d9"/><g fill="#e8e8e8"><path d="m8 32.354c2.791.614 5.813 1.073 9 1.348v-5.702h-9z"/><path d="m21 33.943c.989.035 1.988.057 3 .057 5.385 0 10.475-.518 15-1.435v-4.565h-18z"/><path d="m51.811 28.049c-.1-.016-.195-.049-.299-.049h-8.512v3.612c3.439-.956 6.424-2.167 8.811-3.563z"/></g><circle cx="44" cy="14" fill="#eb6a80" r="6"/><circle cx="44" cy="14" fill="#e34a60" r="2"/><path d="m24 10h-12c-1.105 0-2 .895-2 2v6c0 1.105.895 2 2 2h12c1.105 0 2-.895 2-2v-6c0-1.105-.895-2-2-2z" fill="#eb6a80"/><path d="m34 10h-6c-1.105 0-2 .895-2 2v6c0 1.105.895 2 2 2h6c1.105 0 2-.895 2-2v-6c0-1.105-.895-2-2-2z" fill="#317dc9"/><path d="m20 2h-6c-1.105 0-2 .895-2 2v4c0 1.105.895 2 2 2h6c1.105 0 2-.895 2-2v-4c0-1.105-.895-2-2-2z" fill="#317dc9"/><path d="m1 61h62v2h-62z"/><path d="m47 61c-4.411 0-8-3.589-8-8s3.589-8 8-8 8 3.589 8 8-3.589 8-8 8zm0-14c-3.309 0-6 2.691-6 6s2.691 6 6 6 6-2.691 6-6-2.691-6-6-6z"/><path d="m47 57c-2.206 0-4-1.794-4-4s1.794-4 4-4 4 1.794 4 4-1.794 4-4 4zm0-6c-1.103 0-2 .897-2 2s.897 2 2 2 2-.897 2-2-.897-2-2-2z"/><path d="m17 61c-4.411 0-8-3.589-8-8s3.589-8 8-8 8 3.589 8 8-3.589 8-8 8zm0-14c-3.309 0-6 2.691-6 6s2.691 6 6 6 6-2.691 6-6-2.691-6-6-6z"/><path d="m17 57c-2.206 0-4-1.794-4-4s1.794-4 4-4 4 1.794 4 4-1.794 4-4 4zm0-6c-1.103 0-2 .897-2 2s.897 2 2 2 2-.897 2-2-.897-2-2-2z"/><path d="m24 52h16v2h-16z"/><path d="m62 54h-8v-2h7v-11.818l-4.477-11.937c-.727-1.941-2.608-3.245-4.681-3.245h-43.842c-2.757 0-5 2.243-5 5v22h7v2h-8c-.553 0-1-.447-1-1v-23c0-3.859 3.141-7 7-7h43.842c2.902 0 5.536 1.825 6.555 4.543l4.54 12.105c.042.113.063.232.063.352v13c0 .553-.447 1-1 1z"/><path d="m56 39h-13c-.553 0-1-.447-1-1v-10c0-.553.447-1 1-1h8.512c1.335 0 2.49.859 2.874 2.139l2.572 8.574c.091.303.033.631-.155.884-.19.254-.487.403-.803.403zm-12-2h10.656l-2.187-7.287c-.127-.427-.512-.713-.957-.713h-7.512z"/><path d="m42 41h4v2h-4z"/><path d="m59 53h-2v-10c0-.553.447-1 1-1h4v2h-3z"/><path d="m7 53h-2v-10h-3v-2h4c.553 0 1 .447 1 1z"/><path d="m39 50h-16v-2h15v-19h-16v18h-2v-19c0-.553.447-1 1-1h18c.553 0 1 .447 1 1v21c0 .553-.447 1-1 1z"/><path d="m21 37h18v2h-18z"/><path d="m29 28h2v10h-2z"/><path d="m17 39h-9c-.553 0-1-.447-1-1v-10c0-.553.447-1 1-1h9c.553 0 1 .447 1 1v10c0 .553-.447 1-1 1zm-8-2h7v-8h-7z"/><path d="m9 41h12v2h-12z"/><path d="m7 19h44v2h-44z"/><path d="m9 20h2v4h-2z"/><path d="m47 20h2v4h-2z"/><path d="m24 21h-12c-1.654 0-3-1.346-3-3v-6c0-1.654 1.346-3 3-3h12c1.654 0 3 1.346 3 3v6c0 1.654-1.346 3-3 3zm-12-10c-.552 0-1 .448-1 1v6c0 .552.448 1 1 1h12c.552 0 1-.448 1-1v-6c0-.552-.448-1-1-1z"/><path d="m34 21h-6c-1.654 0-3-1.346-3-3v-6c0-1.654 1.346-3 3-3h6c1.654 0 3 1.346 3 3v6c0 1.654-1.346 3-3 3zm-6-10c-.552 0-1 .448-1 1v6c0 .552.448 1 1 1h6c.552 0 1-.448 1-1v-6c0-.552-.448-1-1-1z"/><path d="m20 11h-6c-1.654 0-3-1.346-3-3v-4c0-1.654 1.346-3 3-3h6c1.654 0 3 1.346 3 3v4c0 1.654-1.346 3-3 3zm-6-8c-.552 0-1 .448-1 1v4c0 .552.448 1 1 1h6c.552 0 1-.448 1-1v-4c0-.552-.448-1-1-1z"/><path d="m44 21c-3.859 0-7-3.141-7-7s3.141-7 7-7 7 3.141 7 7-3.141 7-7 7zm0-12c-2.757 0-5 2.243-5 5s2.243 5 5 5 5-2.243 5-5-2.243-5-5-5z"/><path d="m23 17h-2v-2h-8v-2h9c.553 0 1 .447 1 1z"/><path d="m44 17c-1.654 0-3-1.346-3-3s1.346-3 3-3 3 1.346 3 3-1.346 3-3 3zm0-4c-.552 0-1 .448-1 1s.448 1 1 1 1-.448 1-1-.448-1-1-1z"/></svg>