<svg id="Flat" height="512" viewBox="0 0 512 512" width="512" xmlns="http://www.w3.org/2000/svg"><path d="m96 453.68v-101.68a80 80 0 0 1 80-80h128a80 80 0 0 1 80 80v136h-253.68a34.321 34.321 0 0 1 -34.32-34.32z" fill="#ccdce5"/><path d="m300.88 283.68v.08l-20.88 52.24-40-40-40 40-20.96-52.4z" fill="#abbac2"/><path d="m72 424h-16v-72a119.036 119.036 0 0 1 21.731-68.591l13.105 9.179a103.115 103.115 0 0 0 -18.836 59.412z" fill="#ccdce5"/><path d="m56 440h16v16h-16z" fill="#ccdce5"/><path d="m296 488h-128a16 16 0 0 1 -16-16 16 16 0 0 1 16-16h128z" fill="#047fa7"/><path d="m224 344h32l8-24-24-24-24 24z" fill="#ef5249"/><path d="m264 424-8-80h-32l-8 80z" fill="#ef5249"/><path d="m256 344h-32l-1.6 16h35.2z" fill="#e8493f"/><path d="m272 432h-120a8 8 0 0 1 -8-8v-64h16v56h112a8 8 0 0 1 8 8 8 8 0 0 1 -8 8z" fill="#abbac2"/><path d="m440 488h-192l28.684-100.4a16 16 0 0 1 15.385-11.6h158.719a16 16 0 0 1 15.385 20.4z" fill="#0093ba"/><path d="m336 136h24a16 16 0 0 1 16 16v48a16 16 0 0 1 -16 16h-24z" fill="#0093ba"/><path d="m136 136v-47.12a64.88 64.88 0 0 1 64.88-64.88h78.24a64.88 64.88 0 0 1 64.88 64.88v119.12a88 88 0 0 1 -88 88h-32a88.01 88.01 0 0 1 -87.641-80" fill="#f5be9a"/><path d="m136 136v-47.12a64.88 64.88 0 0 1 64.88-64.88h-32a64.88 64.88 0 0 0 -64.88 64.88v47.12" fill="#047fa7"/><path d="m136 128h56a31.957 31.957 0 0 0 32-32v32h8a48.072 48.072 0 0 0 48-48 48.031 48.031 0 0 0 48 48h16v-39.12a64.88 64.88 0 0 0 -64.88-64.88h-78.24a64.88 64.88 0 0 0 -64.88 64.88z" fill="#354f5c"/><path d="m208 264h-88a8 8 0 0 1 -8-8v-48h16v40h80z" fill="#047fa7"/><rect fill="#0093ba" height="80" rx="16" width="64" x="88" y="136"/><path d="m112 160h16v32h-16z" fill="#7ecce6"/><g fill="#a3783b"><path d="m264 216h-8a8 8 0 0 1 0-16h8v-32a16.019 16.019 0 0 1 16-16h40a8 8 0 0 1 0 16h-40v32a16.019 16.019 0 0 1 -16 16z"/><path d="m240 168h-32a8 8 0 0 1 0-16h32a8 8 0 0 1 0 16z"/><path d="m256 264h-16a8 8 0 0 1 0-16h16a8 8 0 0 1 0 16z"/><circle cx="224" cy="184" r="8"/><circle cx="304" cy="184" r="8"/></g><path d="m360 424h16v16h-16z" fill="#7ecce6"/></svg>