<?xml version="1.0"?>
<svg xmlns="http://www.w3.org/2000/svg" id="Layer_1" data-name="Layer 1" viewBox="0 0 512 512" width="512" height="512"><title>Car  Maintenance</title><path d="M342.59,309.22a36.98,36.98,0,0,1,12.09,21.95l9.14-4.82,54.97-29.65,6.6-3.56a30.023,30.023,0,0,1,39.98,10.93L335.81,393.03a90.709,90.709,0,0,1-56.42,7.96L204.5,387.2a27.889,27.889,0,0,0-20.38,2.7l-40.56,25.65-28.34-92.94.25-.08a48.6,48.6,0,0,0,23.51-11.5l12.41-11.05a82.924,82.924,0,0,1,85.95-8.39l5.14,2.48a59.225,59.225,0,0,0,25.79,5.91H318.1A36.93,36.93,0,0,1,342.59,309.22Z" style="fill:#e48e66"/><path d="M418.75,296.62l.04.08-54.97,29.65-9.14,4.82a36.98,36.98,0,0,0-12.09-21.95l35.32-19.03,8.99-4.85C398.01,279.71,412.59,285.8,418.75,296.62Z" style="fill:#af593c"/><path d="M406,119.39l-33.55.26L361.34,99.51s17.08-.06,25.38-.12,15.13,3.92,17.19,9.94A41.818,41.818,0,0,1,406,119.39Z" style="fill:#6fe3ff"/><path d="M397.15,148.16l-7.28,58.41a12.625,12.625,0,0,1-12.49,12.68l-1.35.01-31.69.23-175.21,1.29-31.69.24-1.68.01a12.616,12.616,0,0,1-12.67-12.49l-7.82-58.31c-.09-12.99,8.87-24.82,21.86-24.94l-.06.11,150.92-1.11,52.17-.39,34.46-.25h.04C387.64,123.58,397.05,135.16,397.15,148.16ZM358.6,184.08a13.045,13.045,0,1,0-13.14-12.95A13.036,13.036,0,0,0,358.6,184.08Zm-204.25,1.5a13.04,13.04,0,1,0-13.14-12.94A13.043,13.043,0,0,0,154.35,185.58Z" style="fill:#e48e66"/><path d="M377.47,289.37l.44.82-35.32,19.03a36.93,36.93,0,0,0-24.49-9.24H307.05l29.39-15.97A33.943,33.943,0,0,1,377.47,289.37Z" style="fill:#af593c"/><path d="M376.2,242.18a6.31,6.31,0,0,1-6.25,6.34l-19.1.14a6.291,6.291,0,0,1-6.34-6.25l-.16-21.89-.01-1.03,31.69-.23.01,1.02Z" style="fill:#f8ec7d"/><path d="M137.13,125.29l2.2-3.97,11.17-20.13L162.36,79.8c6.49-13.64,16.93-25.19,31.04-25.29l125.27-.93c14.12-.1,23.34,11.3,31.06,24.91l11.61,21.02,11.11,20.14,2.21,4h-.04l-34.46.25-.01-.86a26.086,26.086,0,1,0-52.17.38l.01.87L137.07,125.4Z" style="fill:#f8ec7d"/><path d="M371.54,170.94a13.04,13.04,0,1,1-13.14-12.95A13.036,13.036,0,0,1,371.54,170.94Z" style="fill:#6fe3ff"/><path d="M340.15,123.04l.01.86-52.17.39-.01-.87a26.086,26.086,0,1,1,52.17-.38Z" style="fill:#6fe3ff"/><path d="M169.3,243.7a6.3,6.3,0,0,1-6.25,6.34l-19.1.14a6.282,6.282,0,0,1-6.34-6.24l-.16-21.9-.01-1.02,31.69-.24.01,1.03Z" style="fill:#f8ec7d"/><path d="M167.3,172.45a13.045,13.045,0,1,1-13.14-12.95A13.043,13.043,0,0,1,167.3,172.45Z" style="fill:#6fe3ff"/><path d="M143.56,415.55l13.07,42.87h-90l-20-164h60l8.59,28.19Zm-24.64,14.17a12,12,0,1,0-12,12A12,12,0,0,0,118.92,429.72Z" style="fill:#f8ec7d"/><path d="M150.5,101.19l-11.17,20.13-.01-.01L106,121.6a41.737,41.737,0,0,1,1.94-10.08c1.97-6.06,8.73-10.14,17.04-10.2s25.49-.15,25.49-.15Z" style="fill:#6fe3ff"/><circle cx="106.92" cy="429.72" r="12" style="fill:#6fe3ff"/><path d="M59.682,459.057A6.819,6.819,0,0,0,66.63,465h90a6.71,6.71,0,0,0,6.695-8.727l-11.513-37.712L187.688,395.9a20.8,20.8,0,0,1,15.107-1.924c.144.037.291.075.437.1l74.908,13.8a98.315,98.315,0,0,0,60.774-8.572,6.864,6.864,0,0,0,.857-.5L469.332,309.84a7,7,0,0,0,2.034-9.382,36.965,36.965,0,0,0-49.3-13.479l-1.2.649c-9.433-10.647-25.1-14.623-37.127-8.532l-.159.083-4.375,2.358a40.984,40.984,0,0,0-46.185-3.624L305.271,293h-37a52.528,52.528,0,0,1-22.748-5.225l-5.135-2.482a89.57,89.57,0,0,0-93.206,9.1c-.154.116-.3.237-.447.365L134.325,305.8a41.585,41.585,0,0,1-14.364,8.34l-6.635-21.973a7.194,7.194,0,0,0-6.7-5.17h-60a7.216,7.216,0,0,0-5.241,2.569,7,7,0,0,0-1.707,5.488ZM390.136,291.548c5.68-2.832,12.7-.924,17.747,3.082l-47.327,25.528-1.454.767a44.217,44.217,0,0,0-5.354-9.764Zm-50.354-1.388c.058-.031.114-.062.17-.1a26.967,26.967,0,0,1,25.208-.96L343.283,300.9a43.99,43.99,0,0,0-12.267-5.971Zm-196.146,26.1L155.824,305.4A75.628,75.628,0,0,1,234.3,297.9l5.134,2.486A66.594,66.594,0,0,0,268.27,307H318.1a30.006,30.006,0,0,1,29.133,22.67l-34.265-1.55a216.958,216.958,0,0,0-39.57,1.828,7,7,0,0,0,1.924,13.866,203.121,203.121,0,0,1,37.013-1.711l42.5,1.92c.105,0,.211.007.315.007a7,7,0,0,0,7-7q0-.933-.042-1.864l5.036-2.655L428.718,299.3a22.98,22.98,0,0,1,26.478,3.266L332.267,386.971a84.224,84.224,0,0,1-51.61,7.135l-74.681-13.752a34.756,34.756,0,0,0-25.267,3.433c-.112.063-.222.128-.33.2l-32.8,20.743-23.53-77.181A55.583,55.583,0,0,0,143.636,316.258ZM101.445,301l45.733,150H72.828L54.535,301Z" style="fill:#63316d"/><path d="M106.92,448.72a19,19,0,1,0-19-19A19.022,19.022,0,0,0,106.92,448.72Zm0-24a5,5,0,1,1-5,5A5.006,5.006,0,0,1,106.92,424.72Z" style="fill:#63316d"/><path d="M154.252,153h-.141a19.809,19.809,0,0,0-19.9,19.948A20.188,20.188,0,0,0,154.228,193h.17c11.05,0,19.6-9.549,19.6-20.6v-.009C174,161.394,165.229,153,154.252,153Zm.039,25.58a5.881,5.881,0,0,1-4.275-1.734,5.45,5.45,0,0,1-1.806-4,5.828,5.828,0,0,1,6-5.842h.042a5.795,5.795,0,1,1,.04,11.58Z" style="fill:#63316d"/><path d="M358.486,151h-.143a20,20,0,0,0,.165,40h.14a19.992,19.992,0,0,0,13.921-34.244A19.907,19.907,0,0,0,358.486,151ZM365,171a6.2,6.2,0,0,1-1.965,4.242,6.447,6.447,0,0,1-4.484,1.76h-.042a6,6,0,1,1-.06-12h.044a6.559,6.559,0,0,1,4.478,1.737A6.179,6.179,0,0,1,365,170.988Z" style="fill:#63316d"/><path d="M411.1,124.182a7,7,0,0,0,1.886-5.177,48.292,48.292,0,0,0-2.456-11.942c-3.08-9-12.459-14.752-23.864-14.673-5.725.042-15.628.083-21.212.1l-9.638-17.457c-7.554-13.319-18.627-28.587-37.2-28.457l-125.267.93c-15.074.107-28.285,10.433-37.216,29.082l-9.763,17.6c-5.6.03-15.669.086-21.442.128-11.423.082-20.7,5.985-23.645,15.031a48.2,48.2,0,0,0-2.279,11.966,7.464,7.464,0,0,0,1.967,5.354A7.2,7.2,0,0,0,106,129h.061l9.735-.285a33.138,33.138,0,0,0-7.526,21.663,5.965,5.965,0,0,0,.062.833l7.768,57.894a19.591,19.591,0,0,0,14.388,18.221l.122,16.657A13.126,13.126,0,0,0,143.885,257H144l19.088-.05a13.22,13.22,0,0,0,13.21-13.324l-.116-15.9,161.21-1.182.116,16.079A13.462,13.462,0,0,0,350.823,256h.078l19.11-.311A13.4,13.4,0,0,0,383.2,242.214l-.122-16.8a19.65,19.65,0,0,0,13.789-18.366l7.23-58.014a7.142,7.142,0,0,0,.053-.925,32.97,32.97,0,0,0-8.165-21.64l10.069-.08A7,7,0,0,0,411.1,124.182ZM168.482,83.194c.071-.127.137-.256.2-.387,3.765-7.915,11.99-21,24.77-21.087L318.72,61h.131c8.879,0,16.3,6.19,24.752,21.085l19.245,34.755-16.321,0A33.254,33.254,0,0,0,314.051,90h-.235a33.217,33.217,0,0,0-32.311,27.3l-132.5.994Zm163.594,33.7-36.12.3a19.167,19.167,0,0,1,4.514-7.45A18.854,18.854,0,0,1,313.919,104h.135A19.182,19.182,0,0,1,332.076,116.892ZM114.6,113.684c1.014-3.122,5.3-5.327,10.433-5.364,3.567-.026,8.773-.057,13.552-.085l-3.39,6.111-20.857.181C114.418,114.249,114.505,113.967,114.6,113.684Zm47.7,129.361-17.691.13-.11-15.209,17.69-.131Zm189.21-1.39-.111-15.213,17.69-.131.111,15.214ZM382.924,205.7a7.015,7.015,0,0,0-.054.916,5.591,5.591,0,0,1-5.541,5.63l-208.252,1.53-31.678.225-1.69,0h-.041a5.591,5.591,0,0,1-5.578-5.518,6.947,6.947,0,0,0-.063-.876l-7.756-57.841c.107-10.419,7.015-17.047,14-17.618.263.03.529-.147.8-.147h.052l237.6-1.55a1.614,1.614,0,0,1,.282.194V131h-.224c9.257,0,15.111,8.625,15.367,16.964Zm-6.359-93.086-3.4-6.35c4.783-.021,10.013-.268,13.6-.268h.13c5.073,0,9.333,2.326,10.386,5.4.1.289.192.672.28.957Z" style="fill:#63316d"/><path d="M293.479,193.21l-73.88.55a7.122,7.122,0,0,0,.05,14.24h.053l73.88-.67a7.06,7.06,0,0,0-.1-14.12Z" style="fill:#63316d"/><path d="M223.059,180h.053a6.992,6.992,0,0,0,6.948-7.062l-.09-12a6.989,6.989,0,0,0-7-6.933h-.054a6.965,6.965,0,0,0-6.947,7.032l.09,12.02A7,7,0,0,0,223.059,180Z" style="fill:#63316d"/><path d="M200.711,154h-.054a7.035,7.035,0,0,0-6.947,7.112l.09,11.98a6.966,6.966,0,0,0,7,6.908h.054a6.923,6.923,0,0,0,6.947-6.982l-.09-12.045A7.022,7.022,0,0,0,200.711,154Z" style="fill:#63316d"/><path d="M312.011,153h-.054a7.112,7.112,0,0,0-6.947,7.2l.09,11.935a6.928,6.928,0,0,0,7,6.863h.053a6.848,6.848,0,0,0,6.948-6.892l-.09-12.09A7.061,7.061,0,0,0,312.011,153Z" style="fill:#63316d"/><path d="M245.319,180h.054a7.064,7.064,0,0,0,6.947-7.147l-.09-12.058a7,7,0,1,0-14,.069l.09,12.1A7.078,7.078,0,0,0,245.319,180Z" style="fill:#63316d"/><path d="M267.579,180h.054a7.135,7.135,0,0,0,6.947-7.227l-.09-11.923a6.917,6.917,0,0,0-7-6.85h-.053a6.826,6.826,0,0,0-6.948,6.867l.09,12.1A7.071,7.071,0,0,0,267.579,180Z" style="fill:#63316d"/><path d="M289.839,179h.054a6.776,6.776,0,0,0,6.947-6.807l-.09-12.133a7.1,7.1,0,0,0-7-7.06H289.7c-3.865,1-6.975,3.422-6.947,7.287l.09,11.893A6.892,6.892,0,0,0,289.839,179Z" style="fill:#63316d"/></svg>
