<svg height="480pt" viewBox="-63 0 479 480" width="480pt" xmlns="http://www.w3.org/2000/svg"><path d="m.5 456c0 13.253906 10.746094 24 24 24h304c13.253906 0 24-10.746094 24-24s-10.746094-24-24-24v-121.136719c14.113281-3.589843 23.992188-16.300781 23.992188-30.863281s-9.878907-27.273438-23.992188-30.863281v-201.136719c13.253906 0 24-10.746094 24-24s-10.746094-24-24-24h-304c-13.253906 0-24 10.746094-24 24s10.746094 24 24 24v121.136719c-14.113281 3.589843-23.992188 16.300781-23.992188 30.863281s9.878907 27.273438 23.992188 30.863281v201.136719c-13.253906 0-24 10.746094-24 24zm336 0c0 4.417969-3.582031 8-8 8h-304c-4.417969 0-8-3.582031-8-8s3.582031-8 8-8h304c4.417969 0 8 3.582031 8 8zm-202.097656-231.199219-45.597656-55.769531c-10.523438-12.867188-16.28125-28.96875-16.304688-45.589844v-75.441406h16v80c0 .265625.0625.511719.0625.800781v.296875c.222656 11.824219 4.453125 23.222656 12 32.328125l65.539062 78.574219-65.496093 78.601562c-7.816407 9.375-12.097657 21.191407-12.105469 33.398438v80h-16v-75.441406c.015625-16.621094 5.765625-32.726563 16.28125-45.597656l45.597656-55.777344c7.203125-8.84375 7.214844-21.527344.023438-30.382813zm114.097656-176.800781v58.230469l-16.039062 5.34375c-14.699219 4.890625-30.785157 3.296875-44.242188-4.375-22.148438-12.589844-49.289062-12.589844-71.4375 0l-12.28125 7.015625v-66.214844zm32 0v75.441406c-.015625 16.621094-5.765625 32.726563-16.28125 45.597656l-45.597656 55.777344c-7.207032 8.851563-7.207032 21.546875 0 30.398438l45.597656 55.769531c10.511719 12.867187 16.261719 28.960937 16.28125 45.574219v75.441406h-16v-80c-.003906-12.199219-4.28125-24.015625-12.089844-33.390625l-65.511718-78.609375 65.496093-78.601562c7.816407-9.375 12.097657-21.191407 12.105469-33.398438v-80zm-176 384v-11.71875l28.726562-19.144531c11.355469-7.589844 20.796876-17.710938 27.585938-29.5625l8.742188-15.292969c1.425781-2.492188 4.074218-4.027344 6.945312-4.027344s5.519531 1.535156 6.945312 4.027344l8.742188 15.277344c6.78125 11.867187 16.222656 22 27.585938 29.601562l28.726562 19.121094v11.71875zm72-204.496094-63.617188-76.304687c-4.40625-5.347657-7.183593-11.851563-8-18.734375l19.832032-11.335938c17.230468-9.785156 38.339844-9.785156 55.570312 0 17.402344 9.945313 38.21875 12.007813 57.238282 5.671875l10.976562-3.703125v4.902344c.007812 8.476562-2.960938 16.6875-8.382812 23.199219zm0 24.992188 63.617188 76.34375c5.414062 6.503906 8.378906 14.699218 8.382812 23.160156v49.0625l-19.847656-13.230469c-9.285156-6.21875-17.003906-14.5-22.550782-24.199219l-8.800781-15.289062c-4.273437-7.472656-12.222656-12.082031-20.832031-12.082031s-16.558594 4.609375-20.832031 12.082031l-8.738281 15.296875c-5.554688 9.695313-13.285157 17.972656-22.574219 24.183594l-19.824219 13.230469v-49.054688c.003906-8.460938 2.972656-16.652344 8.382812-23.152344zm160 27.503906c0 8.835938-7.164062 16-16 16s-16-7.164062-16-16 7.164062-16 16-16 16 7.164062 16 16zm-24-30.863281c-14.113281 3.589843-23.992188 16.300781-23.992188 30.863281s9.878907 27.273438 23.992188 30.863281v121.136719h-16v-75.441406c-.011719-20.320313-7.039062-40.015625-19.886719-55.757813l-45.601562-55.761719c-2.414063-2.945312-2.414063-7.1875 0-10.136718l45.601562-55.765625c12.835938-15.726563 19.859375-35.398438 19.886719-55.695313v-75.441406h16zm-296-225.136719c0-4.417969 3.582031-8 8-8h304c4.417969 0 8 3.582031 8 8s-3.582031 8-8 8h-304c-4.417969 0-8-3.582031-8-8zm0 176c0-8.835938 7.164062-16 16-16s16 7.164062 16 16-7.164062 16-16 16-16-7.164062-16-16zm24 30.863281c14.113281-3.589843 23.992188-16.300781 23.992188-30.863281s-9.878907-27.273438-23.992188-30.863281v-121.136719h16v75.441406c.011719 20.320313 7.039062 40.015625 19.886719 55.757813l45.601562 55.761719c2.414063 2.945312 2.414063 7.1875 0 10.136718l-45.601562 55.765625c-12.835938 15.726563-19.859375 35.398438-19.886719 55.695313v75.441406h-16zm0 0"/><path d="m168.5 304h16v16h-16zm0 0"/><path d="m168.5 384h16v16h-16zm0 0"/><path d="m144.5 408h16v16h-16zm0 0"/><path d="m168.5 272h16v16h-16zm0 0"/><path d="m160.5 176h16v16h-16zm0 0"/><path d="m144.5 136h16v16h-16zm0 0"/><path d="m192.5 144h16v16h-16zm0 0"/></svg>