<svg id="Layer_1" height="512" viewBox="0 0 128 128" width="512" xmlns="http://www.w3.org/2000/svg" data-name="Layer 1"><path d="m115 108.56v6.42h-102v-6.42c0-12.22 9.9-23.12 22.12-23.12l13.96-1.27a7.217 7.217 0 0 0 5.75-5.06l1.29-4.38h15.76l1.29 4.38a7.217 7.217 0 0 0 5.75 5.06l13.96 1.27c12.22 0 22.12 10.9 22.12 23.12z" fill="#fcb740"/><path d="m92.88 85.44-13.96-1.27a7.217 7.217 0 0 1 -5.75-5.06l-1.29-4.38h-7.88v40.25h51v-6.42c0-12.22-9.9-23.12-22.12-23.12z" fill="#fc8800"/><path d="m49.079 84.167h29.842l-14.921 30.817z" fill="#fff0c3"/><path d="m64 79.984a26.25 26.25 0 0 1 -26.25-26.25v-12.526l24.583-13.1 17.833 5.167 10.084 6.907v13.552a26.25 26.25 0 0 1 -26.25 26.25z" fill="#ffdaa8"/><path d="m64 28.593v51.391a26.25 26.25 0 0 0 26.25-26.25v-13.552l-10.083-6.906z" fill="#ffc373"/><path d="m37.75 45.36v12.458l5.279-4.083v-3.123a7.077 7.077 0 0 1 6.339-7.031 41.212 41.212 0 0 0 22.677-9.721 34.635 34.635 0 0 0 9.518 8.183 6.969 6.969 0 0 1 3.409 6.048v5.643l5.279 4.083v-18.551c0-10.91-.143-20.265-6.392-24.227a7.744 7.744 0 0 0 -10.98 3.216l-.616-.493a21.642 21.642 0 0 0 -13.524-4.746 21.042 21.042 0 0 0 -21.065 21.716c.049 1.424.076 9.028.076 10.628z" fill="#ff415a"/><path d="m83.858 15.039a7.744 7.744 0 0 0 -10.98 3.216l-.616-.493a21.633 21.633 0 0 0 -8.262-4.09v25.6a39.3 39.3 0 0 0 8.045-5.413 34.635 34.635 0 0 0 9.518 8.183 6.969 6.969 0 0 1 3.409 6.048v5.643l5.279 4.083v-18.55c-.001-10.91-.144-20.266-6.393-24.227z" fill="#ce0050"/><path d="m55.035 78.413h17.93l.205.697-9.214 8.239-9.13-8.243z" fill="#ffc373"/><path d="m96.92 104.49v10.49h-3.5v-10.49a1.75 1.75 0 0 1 3.5 0z" fill="#fcb740"/><path d="m34.58 104.49v10.49h-3.5v-10.49a1.75 1.75 0 0 1 3.5 0z" fill="#fc8800"/><path d="m32.034 52.1a5.716 5.716 0 0 0 5.716 5.716v-11.431a5.716 5.716 0 0 0 -5.716 5.715z" fill="#ffdaa8"/><path d="m95.966 52.1a5.716 5.716 0 0 0 -5.716-5.716v11.434a5.716 5.716 0 0 0 5.716-5.718z" fill="#ffc373"/><path d="m55.122 50.317a2.583 2.583 0 1 0 2.583 2.583 2.587 2.587 0 0 0 -2.583-2.583z" fill="#ff9f60"/><path d="m72.878 50.317a2.583 2.583 0 1 0 2.584 2.583 2.587 2.587 0 0 0 -2.584-2.583z" fill="#ff9f60"/><path d="m61.33 62.251 1.67 1.167a1.75 1.75 0 0 0 2-2.867l-.671-.47 1.36-5.239a1.75 1.75 0 0 0 -3.387-.881l-1.662 6.416a1.75 1.75 0 0 0 .69 1.874z" fill="#ff9f60"/><path d="m68.68 66.381a18.625 18.625 0 0 1 -9.4-.013 1.75 1.75 0 0 0 -.979 3.36 23.267 23.267 0 0 0 5.979.773 18.145 18.145 0 0 0 5.457-.785 1.75 1.75 0 0 0 -1.057-3.336z" fill="#ff9f60"/><path d="m49.079 84.167 10.311 9.016 4.565-5.833-9.13-8.243a7.2 7.2 0 0 1 -5.746 5.06z" fill="#ffe668"/><path d="m78.832 84.167-10.311 9.015-4.565-5.833 9.214-8.239a7.088 7.088 0 0 0 5.662 5.057z" fill="#ffcf00"/><path d="m49.079 84.167 14.921 30.817-17.841-13.455 2.92-3.013-8.405-13.425z" fill="#ffe668"/><path d="m78.921 84.167-14.921 30.817 17.841-13.455-2.92-3.013 8.405-13.425z" fill="#ffcf00"/><path d="m60.788 91.397 3.168 4.452 3.168-4.452-3.168-4.048z" fill="#ffffed"/><path d="m60.18 107.095 3.776-11.246 3.864 11.246-3.82 7.889z" fill="#ffffed"/><path d="m37.661 37.417h52.572v5.981h-52.572z" fill="#d96200"/><path d="m64 37.417h26.234v5.981h-26.234z" fill="#af4b00"/><path d="m90.568 13h-53.241a2.358 2.358 0 0 0 -2.341 2.646l2.675 21.771h52.573l2.675-21.771a2.358 2.358 0 0 0 -2.341-2.646z" fill="#fcb740"/><path d="m90.568 13h-26.568v24.417h26.234l2.675-21.771a2.358 2.358 0 0 0 -2.341-2.646z" fill="#fc8800"/><path d="m51.242 24.879h6.379v6.379h-6.379z" fill="#28092d"/><path d="m57.621 18.5h6.379v6.379h-6.379z" fill="#ffffed"/><path d="m70.379 18.5h6.379v6.379h-6.379z" fill="#ffffed"/><path d="m64 24.879h6.379v6.379h-6.379z" fill="#28092d"/><path d="m93 35.667h-58a1.75 1.75 0 0 0 0 3.5h58a1.75 1.75 0 0 0 0-3.5z" fill="#ffffed"/><path d="m93 35.667h-29v3.5h29a1.75 1.75 0 0 0 0-3.5z" fill="#fff0c3"/><g fill="#28092d"><path d="m102.242 85.756a22.274 22.274 0 0 0 -9.284-2.065l-13.812-1.26a5.483 5.483 0 0 1 -3.98-3.025 28.1 28.1 0 0 0 16.241-19.938 7.456 7.456 0 0 0 .593-14.618v-1.45c0-.056-.011-.11-.017-.165v-4.068h1.017a1.75 1.75 0 0 0 0-3.5h-53.79l-2.487-20.234a.609.609 0 0 1 .6-.683h5.506a1.75 1.75 0 0 0 0-3.5h-5.502a4.108 4.108 0 0 0 -4.078 4.609l2.434 19.808h-.683a1.75 1.75 0 0 0 0 3.5h.912v4.233a1.731 1.731 0 0 0 .088.52v.93a7.462 7.462 0 0 0 1.75 14.717 1.734 1.734 0 0 0 1.053-.361c.005 0 .012 0 .017-.006l5.28-4.082a1.749 1.749 0 0 0 .679-1.384v-3.122a5.325 5.325 0 0 1 4.777-5.29c.446-.048.914-.108 1.394-.175h31.382a5.38 5.38 0 0 1 .89 2.943v5.644a1.75 1.75 0 0 0 3.5 0v-5.643a8.957 8.957 0 0 0 -.5-2.943h2.278v8.587a24.5 24.5 0 0 1 -47.386 8.765 1.75 1.75 0 0 0 -3.269 1.252 28.121 28.121 0 0 0 15.008 15.62 5.486 5.486 0 0 1 -4 3.059l-8.434.769c-.021 0-.04.009-.06.012a1.705 1.705 0 0 0 -.17.033 1.754 1.754 0 0 0 -.173.046c-.047.016-.092.037-.139.057a1.728 1.728 0 0 0 -.181.089c-.015.009-.031.014-.046.023s-.048.039-.074.058a1.768 1.768 0 0 0 -.156.121c-.04.036-.077.073-.113.112s-.079.087-.115.134-.064.089-.092.135a1.723 1.723 0 0 0 -.086.151c-.024.048-.044.1-.063.147a1.745 1.745 0 0 0 -.056.169c-.014.052-.024.1-.034.158a1.725 1.725 0 0 0 -.023.172 1.751 1.751 0 0 0 0 .18v.105c0 .021.009.04.011.06.007.053.018.1.029.157a1.753 1.753 0 0 0 .047.178c.015.044.033.088.052.131a1.711 1.711 0 0 0 .091.184c.011.019.017.04.029.059l7.771 12.411-1.968 2.03a1.751 1.751 0 0 0 .2 2.615l17.841 13.455a1.821 1.821 0 0 0 2.107 0l17.852-13.455a1.75 1.75 0 0 0 .2-2.615l-1.967-2.029 3.729-5.956a1.75 1.75 0 1 0 -2.967-1.857l-4.456 7.118a1.75 1.75 0 0 0 .227 2.146l1.542 1.592-10.472 7.9 11.234-23.2 12.75 1.163c.053 0 .106.007.159.007a18.8 18.8 0 0 1 7.9 1.745 1.73 1.73 0 0 0 .729.16 1.75 1.75 0 0 0 .731-3.34zm-8.025-33.656a3.962 3.962 0 0 1 -2.292 3.582c.045-.645.075-1.293.075-1.949v-5.173a3.958 3.958 0 0 1 2.217 3.54zm-60.433 0a3.958 3.958 0 0 1 2.216-3.54v5.175c0 .649.027 1.3.071 1.947a3.962 3.962 0 0 1 -2.287-3.582zm7.495-1.489v2.264l-1.76 1.361c0-.168-.018-.335-.018-.5v-8.589h3.685a8.77 8.77 0 0 0 -1.908 5.465zm47.205-8.965h-49.072v-2.48h49.071zm-20.389 60.865-2.195-6.38 1.292-1.816a1.741 1.741 0 0 0 1.161.61c.056 0 .11.008.165.008a1.75 1.75 0 0 0 1.152-.433l3.989-3.488zm-4.095 8.457-1.934-3.994 1.908-5.685 1.955 5.692zm-8.61-29 6.183 5.582-2.421 3.094-6.729-5.883a9.037 9.037 0 0 0 2.967-2.788zm8.566 8.215.985 1.258-.985 1.384-.984-1.384zm7.916-9.583a9 9 0 0 0 3.651 4.135l-6.763 5.913-2.421-3.094 1.961-1.766a1.75 1.75 0 1 0 -2.346-2.6l-1.995 1.8-3.938-3.556a27.542 27.542 0 0 0 3.983.3 27.906 27.906 0 0 0 7.868-1.132zm-23.078 20.725 1.542-1.592a1.75 1.75 0 0 0 .227-2.146l-6.987-11.16 4.917-.449 9.746 8.522a1.749 1.749 0 0 0 1.152.433c.055 0 .11 0 .165-.008a1.744 1.744 0 0 0 1.162-.61l1.3 1.822-2.127 6.335-3.191-6.589a1.75 1.75 0 1 0 -3.15 1.525l5.067 10.466.653 1.348z"/><path d="m107.734 89.265-.213-.179a1.75 1.75 0 0 0 -2.232 2.7l.164.138a1.75 1.75 0 0 0 2.281-2.654z"/><path d="m111.306 92.979a1.75 1.75 0 1 0 -2.756 2.158 21.9 21.9 0 0 1 4.7 13.426v6.421a1.75 1.75 0 0 0 3.5 0v-6.421a25.417 25.417 0 0 0 -5.444-15.584z"/><path d="m35.123 83.69c-12.94 0-23.873 11.391-23.873 24.873v6.421a1.75 1.75 0 0 0 3.5 0v-6.421c0-11.585 9.33-21.373 20.373-21.373a1.75 1.75 0 1 0 0-3.5z"/><path d="m95.167 102.735a1.75 1.75 0 0 0 -1.75 1.75v10.5a1.75 1.75 0 0 0 3.5 0v-10.5a1.75 1.75 0 0 0 -1.75-1.75z"/><path d="m32.833 102.735a1.75 1.75 0 0 0 -1.75 1.75v10.5a1.75 1.75 0 0 0 3.5 0v-10.5a1.75 1.75 0 0 0 -1.75-1.75z"/><path d="m55.122 50.317a2.583 2.583 0 1 0 2.583 2.583 2.587 2.587 0 0 0 -2.583-2.583z"/><path d="m72.878 55.484a2.583 2.583 0 1 0 -2.583-2.584 2.587 2.587 0 0 0 2.583 2.584z"/><path d="m64.44 52.708a1.743 1.743 0 0 0 -2.134 1.253l-1.666 6.416a1.75 1.75 0 0 0 .69 1.874l1.67 1.167a1.75 1.75 0 0 0 2-2.867l-.671-.47 1.36-5.239a1.75 1.75 0 0 0 -1.249-2.134z"/><path d="m57.112 67.558a1.751 1.751 0 0 0 1.188 2.171 23.267 23.267 0 0 0 5.979.773 18.145 18.145 0 0 0 5.457-.785 1.75 1.75 0 0 0 -1.057-3.336 18.625 18.625 0 0 1 -9.4-.013 1.754 1.754 0 0 0 -2.167 1.19z"/><path d="m48.25 14.75h.833a1.75 1.75 0 0 0 0-3.5h-.833a1.75 1.75 0 0 0 0 3.5z"/><path d="m54.917 14.75h35.65a.607.607 0 0 1 .6.682l-1.914 15.612a1.751 1.751 0 0 0 1.523 1.956 1.8 1.8 0 0 0 .216.013 1.751 1.751 0 0 0 1.735-1.536l1.918-15.612a4.11 4.11 0 0 0 -4.078-4.609h-35.65a1.75 1.75 0 0 0 0 3.5z"/><path d="m49.492 24.879v6.379a1.75 1.75 0 0 0 1.75 1.75h6.379a1.75 1.75 0 0 0 1.75-1.75v-4.629h2.879v4.629a1.75 1.75 0 0 0 1.75 1.75h6.379a1.75 1.75 0 0 0 1.75-1.75v-4.629h4.629a1.75 1.75 0 0 0 1.75-1.75v-6.379a1.75 1.75 0 0 0 -1.75-1.75h-6.379a1.75 1.75 0 0 0 -1.75 1.75v4.629h-2.879v-4.629a1.75 1.75 0 0 0 -1.75-1.75h-6.379a1.75 1.75 0 0 0 -1.75 1.75v4.629h-4.629a1.75 1.75 0 0 0 -1.75 1.75zm22.637-4.629h2.879v2.879h-2.879zm-3.5 9.258h-2.879v-2.879h2.879zm-9.258-9.258h2.879v2.879h-2.879zm-6.379 6.379h2.879v2.879h-2.879z"/></g></svg>