<svg id="Layer_1" height="512" viewBox="0 0 128 128" width="512" xmlns="http://www.w3.org/2000/svg" data-name="Layer 1"><path d="m115 108.56v6.42h-102v-6.42c0-12.22 9.9-23.12 22.12-23.12l13.96-1.27a7.217 7.217 0 0 0 5.75-5.06l1.29-4.38h15.76l1.29 4.38a7.217 7.217 0 0 0 5.75 5.06l13.96 1.27c12.22 0 22.12 10.9 22.12 23.12z" fill="#fbb74d"/><path d="m49.079 84.167h29.842l-14.921 30.817z" fill="#fff0c6"/><path d="m64 79.984a26.25 26.25 0 0 1 -26.25-26.25v-12.526l24.583-13.1 17.833 5.167 10.084 6.907v13.552a26.25 26.25 0 0 1 -26.25 26.25z" fill="#fedaac"/><path d="m37.75 45.36v12.458l5.279-4.083v-3.123a7.077 7.077 0 0 1 6.339-7.031 41.212 41.212 0 0 0 22.677-9.721 34.635 34.635 0 0 0 9.518 8.183 6.969 6.969 0 0 1 3.409 6.048v5.643l5.279 4.083v-18.551c0-10.91-.143-20.265-6.392-24.227a7.744 7.744 0 0 0 -10.98 3.216l-.616-.493a21.642 21.642 0 0 0 -13.524-4.746 21.042 21.042 0 0 0 -21.065 21.716c.049 1.424.076 9.028.076 10.628z" fill="#fc445e"/><path d="m55.035 78.413h17.93l.205.697-9.214 8.239-9.13-8.243z" fill="#fec379"/><path d="m96.92 104.49v10.49h-3.5v-10.49a1.75 1.75 0 0 1 3.5 0z" fill="#fb8924"/><path d="m34.58 104.49v10.49h-3.5v-10.49a1.75 1.75 0 0 1 3.5 0z" fill="#fb8924"/><path d="m32.034 52.1a5.716 5.716 0 0 0 5.716 5.716v-11.431a5.716 5.716 0 0 0 -5.716 5.715z" fill="#fedaac"/><path d="m95.966 52.1a5.716 5.716 0 0 0 -5.716-5.716v11.434a5.716 5.716 0 0 0 5.716-5.718z" fill="#fedaac"/><g fill="#ffa066"><path d="m55.122 50.317a2.583 2.583 0 1 0 2.583 2.583 2.587 2.587 0 0 0 -2.583-2.583z"/><path d="m72.878 50.317a2.583 2.583 0 1 0 2.584 2.583 2.587 2.587 0 0 0 -2.584-2.583z"/><path d="m61.33 62.251 1.67 1.167a1.75 1.75 0 0 0 2-2.867l-.671-.47 1.36-5.239a1.75 1.75 0 0 0 -3.387-.881l-1.662 6.416a1.75 1.75 0 0 0 .69 1.874z"/><path d="m68.68 66.381a18.625 18.625 0 0 1 -9.4-.013 1.75 1.75 0 0 0 -.979 3.36 23.267 23.267 0 0 0 5.979.773 18.145 18.145 0 0 0 5.457-.785 1.75 1.75 0 0 0 -1.057-3.336z"/></g><path d="m49.079 84.167 10.311 9.016 4.565-5.833-9.13-8.243a7.2 7.2 0 0 1 -5.746 5.06z" fill="#fee671"/><path d="m78.832 84.167-10.311 9.015-4.565-5.833 9.214-8.239a7.088 7.088 0 0 0 5.662 5.057z" fill="#fee671"/><path d="m49.079 84.167 14.921 30.817-17.841-13.455 2.92-3.013-8.405-13.425z" fill="#fee671"/><path d="m78.921 84.167-14.921 30.817 17.841-13.455-2.92-3.013 8.405-13.425z" fill="#fee671"/><path d="m60.788 91.397 3.168 4.452 3.168-4.452-3.168-4.048z" fill="#ffffef"/><path d="m60.18 107.095 3.776-11.246 3.864 11.246-3.82 7.889z" fill="#ffffef"/><path d="m37.661 37.417h52.572v5.981h-52.572z" fill="#d8621b"/><path d="m90.568 13h-53.241a2.358 2.358 0 0 0 -2.341 2.646l2.675 21.771h52.573l2.675-21.771a2.358 2.358 0 0 0 -2.341-2.646z" fill="#fbb74d"/><path d="m51.242 24.879h6.379v6.379h-6.379z" fill="#280b2c"/><path d="m57.621 18.5h6.379v6.379h-6.379z" fill="#ffffef"/><path d="m70.379 18.5h6.379v6.379h-6.379z" fill="#ffffef"/><path d="m64 24.879h6.379v6.379h-6.379z" fill="#280b2c"/><path d="m93 35.667h-58a1.75 1.75 0 0 0 0 3.5h58a1.75 1.75 0 0 0 0-3.5z" fill="#ffffef"/></svg>